<svg width="82" height="62" viewBox="0 0 82 62" fill="none" xmlns="http://www.w3.org/2000/svg">
<g clip-path="url(#clip0_212_15)">
<path d="M0 0H82V61.5H0V0Z" fill="#012169"/>
<path d="M9.60938 0L40.8719 23.1906L72.0062 0H82V7.94375L51.25 30.8781L82 53.6844V61.5H71.75L41 38.5656L10.3781 61.5H0V53.8125L30.6219 31.0062L0 8.2V0H9.60938Z" fill="white"/>
<path d="M54.325 36.0031L82 56.375V61.5L47.2781 36.0031H54.325ZM30.75 38.5656L31.5187 43.05L6.91875 61.5H0L30.75 38.5656ZM82 0V0.384375L50.0969 24.4719L50.3531 18.8344L75.5938 0H82ZM0 0L30.6219 22.55H22.9344L0 5.38125V0Z" fill="#C8102E"/>
<path d="M30.8781 0V61.5H51.3781V0H30.8781ZM0 20.5V41H82V20.5H0Z" fill="white"/>
<path d="M0 24.7281V37.0281H82V24.7281H0ZM34.9781 0V61.5H47.2781V0H34.9781Z" fill="#C8102E"/>
</g>
<defs>
<clipPath id="clip0_212_15">
<rect width="82" height="61.5" fill="white"/>
</clipPath>
</defs>
</svg>
