<svg width="44" height="42" viewBox="0 0 44 42" fill="none" xmlns="http://www.w3.org/2000/svg">
<path d="M2.19279 1L41.8063 41M17.2554 16.3636C16.1052 17.5636 15.3973 19.1982 15.3973 21C15.3973 24.682 18.3533 27.6667 21.9995 27.6667C23.8096 27.6667 25.4496 26.9311 26.6422 25.74M9.89543 9.10478C5.71553 11.8896 2.53177 16.0754 1 21C3.80431 30.0158 12.1458 36.5556 22 36.5556C26.377 36.5556 30.4557 35.2653 33.8832 33.0409M19.7988 5.5542C20.5228 5.48162 21.2572 5.44444 22 5.44444C31.8543 5.44444 40.1958 11.9842 43 21C42.3822 22.9867 41.4953 24.8529 40.3829 26.5556" stroke="#C82611" stroke-linecap="round" stroke-linejoin="round"/>
</svg>
